<?xml version="1.0" encoding="UTF-8" standalone="no"?> <!-- Created with Inkscape (http://www.inkscape.org/) --> <svg xmlns:dc="http://purl.org/dc/elements/1.1/" xmlns:cc="http://creativecommons.org/ns#" xmlns:rdf="http://www.w3.org/1999/02/22-rdf-syntax-ns#" xmlns:svg="http://www.w3.org/2000/svg" xmlns="http://www.w3.org/2000/svg" xmlns:sodipodi="http://sodipodi.sourceforge.net/DTD/sodipodi-0.dtd" xmlns:inkscape="http://www.inkscape.org/namespaces/inkscape" width="210mm" height="297mm" viewBox="0 0 744.09448819 1052.3622047" id="svg4486" version="1.1" inkscape:version="0.91 r13725" sodipodi:docname="batterij.svg"> <defs id="defs4488" /> <sodipodi:namedview id="base" pagecolor="#ffffff" bordercolor="#666666" borderopacity="1.0" inkscape:pageopacity="0.0" inkscape:pageshadow="2" inkscape:zoom="1.4" inkscape:cx="253.87642" inkscape:cy="640.07442" inkscape:document-units="px" inkscape:current-layer="layer1" showgrid="false" inkscape:window-width="1920" inkscape:window-height="996" inkscape:window-x="0" inkscape:window-y="27" inkscape:window-maximized="1" /> <metadata id="metadata4491"> <rdf:RDF> <cc:Work rdf:about=""> <dc:format>image/svg+xml</dc:format> <dc:type rdf:resource="http://purl.org/dc/dcmitype/StillImage" /> <dc:title></dc:title> </cc:Work> </rdf:RDF> </metadata> <g inkscape:label="Layer 1" inkscape:groupmode="layer" id="layer1"> <path style="fill:#060000;fill-opacity:1;stroke:none;stroke-opacity:1" inkscape:connector-curvature="0" d="m 597.14286,314.50507 c 0,-15 -3.38,-20 -20,-20 l -15,0 0,-45 c 0,-29.547 -5.453,-35 -35,-35 l -375,0 c -29.547,0 -35,5.453 -35,35 l 0,239.99999 c 0,29.54701 5.453,35 35,35 l 375,0 c 29.547,0 35,-5.45299 35,-35 l 0,-45 15,0 c 16.62,0 20,-5 20,-20 z m -69.813,-48.094 c -0.02,4.666 -0.187,10.594 -0.187,18.094 l 0,169.99999 c 0,40 5,35 -35,35 l -304.99999,0 c -40.00001,0 -35.00001,5 -35.00001,-35 l 0,-169.99999 c 0,-40 -5,-35 35.00001,-35 l 304.99999,0 c 32.5,0 35.283,-3.31 35.188,16.906 z" id="path4914-9" sodipodi:nodetypes="sscsssssssscssscsssssssscc" /> </g> </svg>
